<svg width="300" height="300" viewBox="0 0 300 300" fill="none" xmlns="http://www.w3.org/2000/svg">
<path d="M23.7588 208.143C7.31836 218.347 13.7828 237.024 26.0265 243.292C37.5065 249.169 49.7235 215.4 83.2847 214.946C125.236 214.379 163.219 245.559 215.375 244.992C257.1 244.539 279.437 214.946 286.807 192.269C273.201 186.6 250.524 186.6 209.139 183.766C154.251 180.006 124.669 190.002 94.623 192.269C64.5766 194.537 41.5872 197.077 23.7588 208.143Z" fill="#7E63E9"/>
<path d="M112.877 176.74C86.3326 180.847 80.0397 171.502 62.6485 182.84C62.6485 167.035 85.8152 107.18 88.1596 102.905C92.915 94.2346 150.245 46.4322 155.622 47.3477C161 48.2632 200.408 110.262 237.825 122.734C218.55 131.271 190.771 114.797 176.607 113.019C170.657 109.368 164.25 92.9398 164.25 92.9398C164.25 126.709 197.087 140.689 206.241 173.546C181.069 158.03 134.113 173.454 112.877 176.74Z" fill="#7E63E9"/>
</svg>
