<svg width="480" height="480" viewBox="0 0 480 480" fill="none" xmlns="http://www.w3.org/2000/svg">
<path fill-rule="evenodd" clip-rule="evenodd" d="M368.015 53.7272C331.624 28.6694 287.525 14 240 14C115.184 14 13.9999 115.184 13.9999 240C13.9999 271.381 20.3958 301.269 31.9553 328.43C36.4707 322.716 41.9112 317.142 48.3557 311.766C80.3007 285.117 106.962 263.788 129.091 246.765C129.091 246.765 175.835 271.346 202.591 291.508C229.348 311.671 265.727 349.727 265.727 349.727C255.292 375.384 241.701 406.5 224.055 444.165C220.488 451.781 216.414 458.463 211.922 464.273C221.121 465.413 230.492 466 240 466C364.816 466 466 364.816 466 240C466 170.611 434.728 108.525 385.509 67.0683L289.924 193.914C297.036 199.273 298.867 227.575 298.919 240.135C298.948 247.236 296.895 261.35 288.64 287.483C288.64 287.483 261.298 256.862 240.448 241.151C219.599 225.44 182.628 207.597 182.628 207.597C203.789 193.157 217.757 187.691 224.115 185.203C224.572 185.024 224.99 184.861 225.368 184.71C237.88 179.739 266.687 176.404 272.354 180.674L368.015 53.7272ZM146.476 233.57C152.64 228.96 158.379 224.745 163.717 220.894C188.959 233.028 209.368 245.277 227.266 258.764C245.173 272.258 260.737 286.491 281.214 309.434C278.999 315.622 276.521 322.293 273.752 329.48C273.752 329.48 239.539 294.308 214.628 275.535C189.716 256.763 146.476 233.57 146.476 233.57Z" fill="#A2FFCD"/>
</svg>
